<?xml version="1.0" encoding="utf-8"?>
<!-- Generator: Adobe Illustrator 24.0.1, SVG Export Plug-In . SVG Version: 6.00 Build 0)  -->
<svg version="1.1" id="Layer_1" xmlns="http://www.w3.org/2000/svg" xmlns:xlink="http://www.w3.org/1999/xlink" x="0px" y="0px"
	 viewBox="0 0 160.1 156.2" style="enable-background:new 0 0 160.1 156.2;" xml:space="preserve">
<style type="text/css">
	.st0{fill:none;}
	.st1{fill:#0071CE;}
</style>
<rect x="8" y="-58" class="st0" width="42" height="25"/>
<text transform="matrix(1 0 0 1 24.6499 -49.2402)" style="font-family:'Raleway-Bold'; font-size:12px;">G</text>
<g>
	<path class="st1" d="M125.8,137.5c-12.3,12.3-26.6,18.4-42.9,18.4c-10.1,0-19.6-2-28.5-6.1s-16.6-9.6-23.2-16.7s-11.8-15.4-15.6-25
		c-3.7-9.5-5.6-19.9-5.6-31c0-10.5,1.9-20.4,5.7-29.8c3.8-9.3,9.1-17.5,15.8-24.5S46.1,10.3,55.2,6.1c9.2-4,19-6.1,29.7-6.1
		c14.4,0,26.8,3,37.1,9.1s18.1,14.2,23.3,24.5L123,50c-3.9-7.6-9.3-13.5-16.3-17.5c-7-4.1-14.6-6.1-22.8-6.1
		c-6.5,0-12.4,1.4-17.9,4.1c-5.4,2.7-10,6.5-13.9,11.3s-6.8,10.3-8.9,16.5C41.1,64.5,40.1,71,40.1,78c0,7.2,1.2,14,3.5,20.2
		c2.3,6.3,5.5,11.7,9.5,16.4s8.8,8.3,14.4,10.9c5.6,2.7,11.6,4,18.1,4c14.9,0,28.3-7,40.3-21V97.7h-31V75.8h55.6v79h-24.7V137.5z"/>
</g>
</svg>
